#!OML:ASF I:\Actors\actors\Patient Classification 2\Patient 1\Session 1\actor1.ASF
:FULLY-SPECIFIED
:DEGREES
298
root -0.655423 18.0773 4.672 8.34735 -42.9345 -10.6305
lowerback 17.3261 0.731432 -3.41822
upperback 2.62219 0.190424 -0.8744
thorax -6.90537 0.134963 0.966154
lowerneck -13.812 3.25831 11.6498
upperneck 18.9168 -0.0950085 7.93182
head 8.33476 1.49075 0.748092
rclavicle -5.52621e-014 1.27222e-014
rhumerus 58.4601 27.0215 -55.881
rradius 54.547
rwrist -30.2247
rhand -1.91959 -55.7065
rfingers 7.12502
rthumb 23.7505 -84.2587
lclavicle -5.52621e-014 1.27222e-014
lhumerus 51.812 -5.17253 76.5232
lradius 41.1869
lwrist 42.2549
lhand -26.1727 -31.3361
lfingers 7.12502
lthumb 0.378909 -1.35667
rfemur -5.3051 10.8514 24.286
rtibia 2.22639e-014
rfoot 6.8458 5.2707
rtoes 15.9473
lfemur 23.5492 9.84892 -8.64943
ltibia -27.1471
lfoot 0.278249 30.0883
ltoes -7.29273
299
root -0.663338 18.0733 4.69873 8.05091 -43.2641 -10.538
lowerback 17.2641 0.627474 -3.46692
upperback 2.35948 0.060709 -0.695396
thorax -7.14928 0.0846855 1.21401
lowerneck -13.6387 3.30047 11.6938
upperneck 19.0814 0.0249532 7.64558
head 8.3584 1.52898 0.657917
rclavicle 8.8658e-014 4.77083e-015
rhumerus 59.0861 27.1494 -55.8251
rradius 54.6025
rwrist -31.3087
rhand -2.61187 -54.1904
rfingers 7.12502
rthumb 23.0864 -82.8273
lclavicle 8.8658e-014 4.77083e-015
lhumerus 52.3 -4.52458 75.6859
lradius 40.9278
lwrist 41.6325
lhand -25.6511 -30.888
lfingers 7.12502
lthumb 0.882729 -0.910088
rfemur -4.961 10.8441 24.2029
rtibia 9.93923e-015
rfoot 7.07527 5.49089
rtoes 16.7003
lfemur 23.8675 9.95212 -8.75641
ltibia -26.8819
lfoot -0.0365751 30.1557
ltoes -7.47675
300
root -0.671375 18.0709 4.72551 7.754 -43.5977 -10.4496
lowerback 17.2641 0.499446 -3.50496
upperback 2.06814 -0.100246 -0.499388
thorax -7.45585 0.021558 1.48217
lowerneck -13.6174 3.38807 11.6129
upperneck 19.4523 0.164205 7.46965
head 8.48067 1.59384 0.632308
rclavicle 4.29375e-014 1.59028e-014
rhumerus 59.752 27.4157 -55.2834
rradius 54.8841
rwrist -32.8474
rhand -1.97324 -54.4497
rfingers 7.12502
rthumb 23.6991 -83.0086
lclavicle 4.29375e-014 1.59028e-014
lhumerus 52.5734 -3.78885 74.8547
lradius 40.6693
lwrist 40.9388
lhand -25.1001 -30.4737
lfingers 7.12502
lthumb 1.41486 -0.498625
rfemur -3.97921 10.8252 24.1242
rtibia -1.23642
rfoot 7.70018 5.33381
rtoes 17.0969
lfemur 24.1914 10.0617 -8.8565
ltibia -26.6125
lfoot -0.31871 30.2143
ltoes -7.62698
301
root -0.678471 18.0687 4.75264 7.45431 -43.9231 -10.3457
lowerback 17.2049 0.434643 -3.42619
upperback 1.85228 -0.160662 -0.398705
thorax -7.65357 -0.000721214 1.55924
lowerneck -13.8582 3.41155 11.7321
upperneck 19.831 0.142647 7.22263
head 8.65476 1.5966 0.537437
rclavicle -7.95139e-015 -7.95139e-015
rhumerus 60.0361 27.4205 -54.665
rradius 55.5589
rwrist -34.4927
rhand -1.54993 -54.6457
rfingers 7.12502
rthumb 24.105 -83.1515
lclavicle -7.95139e-015 -7.95139e-015
lhumerus 52.9336 -3.34665 73.8182
lradius 40.4449
lwrist 40.4933
lhand -24.6212 -30.0507
lfingers 7.12502
lthumb 1.87745 -0.0792624
rfemur -2.90766 10.7958 24.0265
rtibia -2.66937
rfoot 8.36099 5.17734
rtoes 17.0929
lfemur 24.5069 10.1265 -8.97707
ltibia -26.3496
lfoot -0.726809 30.2992
ltoes -7.52714
302
root -0.685487 18.0651 4.77931 7.1646 -44.2673 -10.2408
lowerback 17.0558 0.406449 -3.26372
upperback 1.71788 -0.160725 -0.391787
thorax -7.7173 -0.00197193 1.4739
lowerneck -14.1738 3.38565 12.1675
upperneck 20.0322 0.0384558 6.74573
head 8.78275 1.55188 0.303108
rclavicle 9.34288e-014 -4.77083e-015
rhumerus 60.1999 27.2561 -53.8215
rradius 56.4857
rwrist -36.1915
rhand -1.57843 -54.6949
rfingers 7.12502
rthumb 24.0777 -83.2043
lclavicle 9.34288e-014 -4.77083e-015
lhumerus 53.4021 -3.03621 72.6002
lradius 40.1892
lwrist 40.2543
lhand -24.2283 -29.4342
lfingers 7.12502
lthumb 2.25683 0.533583
rfemur -2.16835 10.7951 23.9306
rtibia -3.48007
rfoot 8.76568 5.26798
rtoes 16.6805
lfemur 24.8188 10.1777 -9.10387
ltibia -26.098
lfoot -1.22427 30.4219
ltoes -7.06417
303
root -0.692704 18.0598 4.80611 6.87204 -44.656 -10.1593
lowerback 16.8756 0.380325 -3.00889
upperback 1.61821 -0.146124 -0.458382
thorax -7.72711 -0.00213677 1.25382
lowerneck -14.4936 3.35514 12.6132
upperneck 20.1795 -0.103862 6.40184
head 8.89324 1.49938 0.106228
rclavicle -6.26172e-014 3.49861e-014
rhumerus 60.7292 27.0713 -52.5983
rradius 57.2968
rwrist -38.198
rhand -0.874413 -56.358
rfingers 7.12502
rthumb 24.7526 -84.7764
lclavicle -6.26172e-014 3.49861e-014
lhumerus 53.8307 -2.6119 71.6451
lradius 39.773
lwrist 39.8251
lhand -23.6703 -28.8691
lfingers 7.12502
lthumb 2.79579 1.09231
rfemur -1.49004 10.8419 23.8603
rtibia -4.14284
rfoot 9.10944 5.33308
rtoes 16.7427
lfemur 25.1698 10.2585 -9.20664
ltibia -25.8456
lfoot -1.68748 30.5593
ltoes -6.4885
304
root -0.700513 18.0542 4.83374 6.60362 -45.0754 -10.1084
lowerback 16.7775 -0.314793 -4.00029
upperback 1.05893 -1.14273 0.753454
thorax -8.19011 -0.404539 3.35581
lowerneck -12.5612 3.85418 10.4922
upperneck 20.1783 1.43961 6.2116
head 8.52051 2.01053 0.518783
rclavicle 3.4191e-014 -6.36111e-015
rhumerus 62.904 29.9452 -49.3266
rradius 58.6412
rwrist -40.7581
rhand -0.864924 -56.9222
rfingers 7.12502
rthumb 24.7617 -85.3394
lclavicle 3.4191e-014 -6.36111e-015
lhumerus 52.1026 1.00736 72.3542
lradius 39.1695
lwrist 38.2534
lhand -23.1322 -28.5545
lfingers 7.12502
lthumb 3.3154 1.39947
rfemur -0.814254 10.9228 23.8071
rtibia -4.79618
rfoot 9.45944 5.39236
rtoes 17.174
lfemur 25.5263 10.374 -9.28771
ltibia -25.5768
lfoot -2.1124 30.6894
ltoes -6.18664
305
root -0.709025 18.0485 4.86037 6.35841 -45.4934 -10.0876
lowerback 16.521 -0.405443 -3.7002
upperback 0.989544 -1.19745 0.733562
thorax -8.1242 -0.442455 3.1707
lowerneck -12.7998 3.90666 10.8913
upperneck 20.256 1.47952 5.77956
head 8.60053 2.02565 0.320679
rclavicle 2.94201e-014 4.6118e-014
rhumerus 63.2335 29.8806 -48.0087
rradius 59.9297
rwrist -42.7494
rhand -2.01402 -56.0018
rfingers 7.12502
rthumb 23.6599 -84.5659
lclavicle 2.94201e-014 4.6118e-014
lhumerus 52.2617 1.80768 71.9421
lradius 38.5561
lwrist 37.0571
lhand -22.929 -28.1035
lfingers 7.12502
lthumb 3.51164 1.84728
rfemur -0.139987 11.005 23.7789
rtibia -5.43068
rfoot 9.78884 5.50227
rtoes 17.2349
lfemur 25.8606 10.5119 -9.34026
ltibia -25.2856
lfoot -2.57448 30.799
ltoes -6.06447
306
root -0.717135 18.0421 4.88476 6.0699 -45.9077 -10.0263
lowerback 16.3411 -0.644835 -3.66659
upperback 0.871606 -1.48303 0.947097
thorax -8.12393 -0.574798 3.44408
lowerneck -12.7073 4.08471 10.7958
upperneck 20.2235 1.87196 5.31885
head 8.57723 2.15647 0.222628
rclavicle -3.49861e-014 1.11319e-014
rhumerus 64.0234 30.2637 -46.1204
rradius 61.4748
rwrist -44.9835
rhand -3.73575 -54.9718
rfingers 7.12502
rthumb 22.0077 -83.7397
lclavicle -3.49861e-014 1.11319e-014
lhumerus 51.9911 3.33984 71.759
lradius 37.9611
lwrist 36.0276
lhand -22.7209 -27.9646
lfingers 7.12502
lthumb 3.71259 1.98282
rfemur 0.544901 11.0798 23.7323
rtibia -6.07552
rfoot 10.1463 5.55739
rtoes 17.2831
lfemur 26.176 10.6279 -9.42249
ltibia -24.9625
lfoot -3.09733 30.9195
ltoes -5.79649
307
root -0.725434 18.036 4.90856 5.76154 -46.3559 -9.92695
lowerback 16.1068 -0.774017 -3.47909
upperback 0.841528 -1.60976 0.962112
thorax -8.01956 -0.644803 3.37521
lowerneck -12.9488 4.17802 10.9421
upperneck 20.1692 2.00188 5.044
head 8.60959 2.2039 0.126109
rclavicle 7.524e-014 -1.66979e-014
rhumerus 64.5655 30.1952 -44.495
rradius 63.011
rwrist -46.878
rhand -3.36351 -55.6768
rfingers 7.12502
rthumb 22.3651 -84.4022
lclavicle 7.524e-014 -1.66979e-014
lhumerus 51.9789 4.49896 71.4065
lradius 37.3612
lwrist 35.3586
lhand -22.485 -28.1336
lfingers 7.12502
lthumb 3.94045 1.80973
rfemur 1.22329 11.1874 23.6451
rtibia -6.75611
rfoot 10.5523 5.50807
rtoes 17.7233
lfemur 26.4699 10.7307 -9.55327
ltibia -24.6018
lfoot -3.68292 31.073
ltoes -5.43563
308
root -0.733923 18.0304 4.93438 5.4842 -46.8313 -9.86261
lowerback 15.8248 -0.898877 -3.30632
upperback 0.816476 -1.7293 1.02133
thorax -7.88248 -0.710903 3.35823
lowerneck -13.2365 4.28977 11.1029
upperneck 20.2095 2.14906 4.72439
head 8.68451 2.26073 0.0166295
rclavicle -9.25343e-014 6.36111e-015
rhumerus 65.1907 30.132 -42.6691
rradius 64.5426
rwrist -48.5308
rhand -1.39545 -57.0016
rfingers 7.12502
rthumb 24.2531 -85.4877
lclavicle -9.25343e-014 6.36111e-015
lhumerus 51.8197 5.68959 71.0641
lradius 36.8285
lwrist 34.4645
lhand -22.1308 -27.1401
lfingers 7.12502
lthumb 4.28245 2.79664
rfemur 1.89556 11.3264 23.5708
rtibia -7.43918
rfoot 10.9509 5.45026
rtoes 18.1509
lfemur 26.7559 10.8409 -9.67688
ltibia -24.213
lfoot -4.26954 31.2471
ltoes -5.27218
309
root -0.742384 18.0238 4.96134 5.25781 -47.3057 -9.83141
lowerback 15.5548 -1.21465 -3.35353
upperback 0.676416 -2.11934 1.37111
thorax -7.83662 -0.890212 3.83925
lowerneck -12.9995 4.55781 10.8351
upperneck 20.1749 2.72899 4.25585
head 8.63918 2.46414 -0.0373624
rclavicle -9.93923e-015 -7.95139e-015
rhumerus 66.33 30.6045 -40.0301
rradius 66.4577
rwrist -50.5428
rhand -0.509355 -57.5309
rfingers 7.12502
rthumb 25.1024 -85.9009
lclavicle -9.93923e-015 -7.95139e-015
lhumerus 51.0737 7.69949 70.957
lradius 36.3567
lwrist 33.6859
lhand -21.8478 -26.6214
lfingers 7.12502
lthumb 4.55573 3.30959
rfemur 2.52448 11.4687 23.5245
rtibia -8.09157
rfoot 11.3348 5.42197
rtoes 18.4543
lfemur 27.0093 10.9204 -9.7994
ltibia -23.8125
lfoot -4.86037 31.458
ltoes -5.12736
310
root -0.751316 18.0156 4.98573 5.06821 -47.7778 -9.79001
lowerback 15.1376 -1.30092 -2.94096
upperback 0.740405 -2.16113 1.22114
thorax -7.55123 -0.936822 3.43331
lowerneck -13.4562 4.64845 11.5131
upperneck 20.0445 2.75396 3.76764
head 8.70113 2.47872 -0.296978
rclavicle -7.51406e-014 -7.95139e-015
rhumerus 66.542 30.0154 -38.1094
rradius 68.4512
rwrist -52.548
rhand -0.307456 -58.0375
rfingers 7.12502
rthumb 25.2959 -86.3803
lclavicle -7.51406e-014 -7.95139e-015
lhumerus 51.0345 8.63414 70.4454
lradius 35.9491
lwrist 33.5095
lhand -21.727 -26.2798
lfingers 7.12502
lthumb 4.67235 3.64866
rfemur 3.06212 11.6108 23.4815
rtibia -8.67357
rfoot 11.6941 5.36657
rtoes 18.9584
lfemur 27.2154 10.9932 -9.93771
ltibia -23.4178
lfoot -5.52419 31.6748
ltoes -4.66591
311
root -0.759986 18.0073 5.00774 4.89077 -48.2497 -9.71923
lowerback 14.6862 -1.42364 -2.68075
upperback 0.786706 -2.27215 1.16657
thorax -7.25265 -1.00881 3.22995
lowerneck -13.6926 4.78542 12.0089
upperneck 19.7896 2.92814 3.2561
head 8.6803 2.53909 -0.52422
rclavicle 7.34509e-014 1.03368e-014
rhumerus 67.0017 29.5006 -36.0025
rradius 70.2706
rwrist -54.4375
rhand 0.815613 -59.0732
rfingers 7.12502
rthumb 26.3714 -87.2594
lclavicle 7.34509e-014 1.03368e-014
lhumerus 50.8371 9.85277 70.1903
lradius 35.6011
lwrist 33.4168
lhand -21.7023 -25.9638
lfingers 7.12502
lthumb 4.6962 3.96417
rfemur 3.49242 11.7547 23.4195
rtibia -9.13776
rfoot 12.0085 5.3257
rtoes 19.4306
lfemur 27.3844 11.1059 -10.0912
ltibia -23.0476
lfoot -6.17774 31.8344
ltoes -4.22777
